<svg xmlns="http://www.w3.org/2000/svg" xmlns:xlink="http://www.w3.org/1999/xlink" viewBox="0 0 275.76 303.2"><defs><style>.cls-1{fill:none;}.cls-2{fill:#1d70b7;}.cls-3{fill:#0a3e6a;}.cls-4{opacity:0.4;}.cls-5{clip-path:url(#clip-path);}.cls-6{clip-path:url(#clip-path-2);}.cls-7{clip-path:url(#clip-path-3);}.cls-8{clip-path:url(#clip-path-4);}.cls-9{clip-path:url(#clip-path-5);}.cls-10{clip-path:url(#clip-path-6);}.cls-11{clip-path:url(#clip-path-7);}.cls-12{clip-path:url(#clip-path-8);}</style><clipPath id="clip-path"><rect class="cls-1" x="23.14" y="56.82" width="66.09" height="23.82"/></clipPath><clipPath id="clip-path-2"><rect class="cls-1" x="116.93" y="56.81" width="66.09" height="23.82"/></clipPath><clipPath id="clip-path-3"><rect class="cls-1" x="114.97" y="33.89" width="56.37" height="41.9"/></clipPath><clipPath id="clip-path-4"><rect class="cls-1" x="111.26" y="15.7" width="41.89" height="56.35"/></clipPath><clipPath id="clip-path-5"><rect class="cls-1" x="106.27" y="4.02" width="23.96" height="66.5"/></clipPath><clipPath id="clip-path-6"><rect class="cls-1" x="34.82" y="33.89" width="56.74" height="42.18"/></clipPath><clipPath id="clip-path-7"><rect class="cls-1" x="53.01" y="15.7" width="42.19" height="56.75"/></clipPath><clipPath id="clip-path-8"><rect class="cls-1" x="75.93" y="4.02" width="23.82" height="66.09"/></clipPath></defs><g id="Layer_2" data-name="Layer 2"><g id="Layer_1-2" data-name="Layer 1"><path class="cls-2" d="M105.67,121.45l19.72-16.13a2.67,2.67,0,0,1,1.84-.67,2.64,2.64,0,0,1,2.67,2.68,2.73,2.73,0,0,1-1.09,2.17l-13.7,10.94L130,139.58a2.36,2.36,0,0,1,.59,1.67,2.64,2.64,0,0,1-2.68,2.67,2.9,2.9,0,0,1-2.33-1.25l-14.79-19-5.1,4.1"/><path class="cls-2" d="M145.75,141.25a2.68,2.68,0,0,1-5.35,0V107.33a2.68,2.68,0,1,1,5.35,0Z"/><path class="cls-2" d="M236,104.12a2.68,2.68,0,0,1-5.35,0V93.6a2.68,2.68,0,0,1,5.35,0Z"/><path class="cls-2" d="M188.44,118.94v22.31a2.67,2.67,0,1,1-5.34,0V120c0-6.6-1.93-11.11-10-11.11-8.27,0-11.11,5-11.11,11.69v20.64a2.68,2.68,0,0,1-5.35,0V107.33a2.68,2.68,0,1,1,5.35,0V110c1.59-3.17,5.68-5.85,11.11-5.85,12.86,0,15.37,7.69,15.37,14.79"/><path class="cls-2" d="M224.53,144v-4.76a14.06,14.06,0,0,1-11.28,5.1c-10.86,0-17.29-6.35-17.29-20s6.43-20.14,17.29-20.14c9.53,0,16.71,5.52,16.71,16.54V144c0,11.37-7.77,16.05-17.13,16.05-6.51,0-11.19-2.43-14-5.77a2.5,2.5,0,0,1-.5-1.5,2.6,2.6,0,0,1,2.59-2.59,2.54,2.54,0,0,1,2,.92,12.69,12.69,0,0,0,9.86,3.92c6.86,0,11.7-3.42,11.7-11m0-23.31c0-7.93-5-11.69-11.28-11.69-7.69,0-11.95,4.84-11.95,15.29,0,10.27,4.26,15.2,11.95,15.2,7.85,0,11.28-6.77,11.28-6.77Z"/><path class="cls-2" d="M244.24,114.34c0,8.78,22,5.52,22,18.89,0,7.6-6.27,11-14.21,11-6.85,0-12.11-3.26-14.28-6a2.5,2.5,0,0,1-.59-1.59,2.43,2.43,0,0,1,2.42-2.42,2.54,2.54,0,0,1,1.84.83,14.15,14.15,0,0,0,10.61,4.1c4.77,0,8.86-1.59,8.86-5.93,0-8.61-22-5.18-22-18.89,0-6.93,5.68-10.1,12.78-10.1,5.68,0,10.11,1.92,12.7,5.34a2.57,2.57,0,0,1,.58,1.59,2.42,2.42,0,0,1-2.42,2.42,2.37,2.37,0,0,1-1.76-.75,11.86,11.86,0,0,0-9.1-3.51c-3.76,0-7.44,1.17-7.44,5"/><path class="cls-2" d="M79.11,175.73c7.43,0,11.53,3.93,12.86,5.76a2.52,2.52,0,0,1,.59,1.59,2.37,2.37,0,0,1-2.42,2.42,2.48,2.48,0,0,1-2-1c-1.25-1.42-3.51-3.93-9-3.93-7.69,0-11.78,4.93-11.78,15.21,0,10.44,4.09,15.29,11.78,15.29a15.23,15.23,0,0,0,9.69-3.59,2.48,2.48,0,0,1,1.59-.59,2.43,2.43,0,0,1,2.42,2.42,2.58,2.58,0,0,1-1.09,2.09,19,19,0,0,1-12.61,4.51c-10.78,0-17.21-6.43-17.21-20.13s6.43-20.05,17.21-20.05"/><path class="cls-2" d="M105.75,181.58c1.59-3.18,5.69-5.85,11.12-5.85,12.86,0,15.37,7.69,15.37,14.79v22.3a2.68,2.68,0,1,1-5.35,0V191.6c0-6.6-1.92-11.11-10-11.11-8.27,0-11.12,5-11.12,11.7"/><path class="cls-2" d="M146.77,178.9v21.81c0,5.43,1.76,10.11,10.2,10.11s10.19-4.68,10.19-10.11V178.9a2.71,2.71,0,0,1,2.75-2.67,2.62,2.62,0,0,1,2.59,2.67v21.81c0,7.94-2.59,15.2-15.53,15.2s-15.55-7.26-15.55-15.2V178.9a2.64,2.64,0,0,1,2.68-2.67,2.69,2.69,0,0,1,2.67,2.67"/><path class="cls-2" d="M187.87,182.58c1.67-3.84,5.85-6.69,11.62-6.69a2.6,2.6,0,0,1,0,5.19c-7.69,0-11.62,5.34-11.62,13v18.71a2.67,2.67,0,1,1-5.34,0V178.9a2.67,2.67,0,0,1,5.34,0Z"/><path class="cls-2" d="M222.63,175.73c7.43,0,11.53,3.93,12.86,5.76a2.52,2.52,0,0,1,.59,1.59,2.37,2.37,0,0,1-2.43,2.42,2.48,2.48,0,0,1-2-1c-1.25-1.42-3.51-3.93-9-3.93-7.69,0-11.78,4.93-11.78,15.21,0,10.44,4.09,15.29,11.78,15.29a15.23,15.23,0,0,0,9.69-3.59,2.47,2.47,0,0,1,1.58-.59,2.43,2.43,0,0,1,2.43,2.42,2.58,2.58,0,0,1-1.09,2.09,19,19,0,0,1-12.61,4.51c-10.78,0-17.21-6.43-17.21-20.13s6.43-20.05,17.21-20.05"/><path class="cls-2" d="M275.76,190.52v22.3a2.68,2.68,0,1,1-5.35,0V191.6c0-6.6-1.92-11.11-10-11.11s-11.11,5-11.11,11.7v20.63a2.67,2.67,0,1,1-5.34,0V158a2.67,2.67,0,1,1,5.34,0v23.56c1.59-3.18,5.69-5.85,11.11-5.85,12.87,0,15.38,7.69,15.38,14.79"/><path class="cls-2" d="M28.57,287.16v-4.77a14.06,14.06,0,0,1-11.28,5.1C6.43,287.49,0,281.14,0,267.44S6.43,247.3,17.29,247.3c9.53,0,16.71,5.52,16.71,16.55v23.31c0,11.36-7.77,16-17.13,16-6.51,0-11.19-2.42-13.95-5.77a2.45,2.45,0,0,1-.5-1.5A2.61,2.61,0,0,1,7,294.26a12.65,12.65,0,0,0,9.85,3.93c6.85,0,11.7-3.43,11.7-11m0-23.31c0-7.94-5-11.7-11.28-11.7-7.68,0-11.95,4.85-11.95,15.29,0,10.28,4.27,15.2,12,15.2,7.85,0,11.28-6.76,11.28-6.76Z"/><path class="cls-2" d="M48.37,250.48v21.81c0,5.43,1.75,10.1,10.19,10.1s10.19-4.67,10.19-10.1V250.48a2.72,2.72,0,0,1,2.76-2.67,2.62,2.62,0,0,1,2.59,2.67v21.81c0,7.93-2.59,15.2-15.54,15.2S43,280.22,43,272.29V250.48a2.64,2.64,0,0,1,2.67-2.67,2.7,2.7,0,0,1,2.68,2.67"/><path class="cls-2" d="M89.38,284.4a2.67,2.67,0,0,1-5.34,0V250.48a2.67,2.67,0,0,1,5.34,0Z"/><path class="cls-2" d="M140.32,252.74V229.59a2.68,2.68,0,0,1,5.35,0V271c0,11-6.85,16.46-16.37,16.46-10.78,0-17.13-6.43-17.13-20.13s6-20.06,16.79-20.06a14.13,14.13,0,0,1,11.36,5.44m0,6.76s-3.17-7.35-11-7.35c-7.61,0-11.79,4.93-11.79,15.21,0,10.44,4.1,15.28,11.79,15.28,6.43,0,11-3.67,11-11.61Z"/><path class="cls-2" d="M155.36,253.49a2.51,2.51,0,1,1,0-5h2.84v-4.92c0-7.52,4.26-14.37,14.45-14.37a2.51,2.51,0,1,1,0,5c-6.52,0-9.11,3.93-9.11,9.36v4.92h7.61a2.51,2.51,0,0,1,0,5h-7.61V284.4a2.67,2.67,0,0,1-5.34,0V253.49Z"/><path class="cls-2" d="M212.83,267.36c0,13.7-6.68,20.13-17.54,20.13s-17.54-6.43-17.54-20.13,6.76-20.06,17.54-20.06,17.54,6.35,17.54,20.06m-5.42,0c0-10.53-4.43-15.21-12.12-15.21s-12.11,4.68-12.11,15.21c0,10.69,4.42,15.28,12.11,15.28s12.12-4.59,12.12-15.28"/><path class="cls-2" d="M225.37,254.16c1.67-3.85,5.85-6.69,11.61-6.69a2.59,2.59,0,1,1,0,5.18c-7.68,0-11.61,5.35-11.61,13V284.4a2.67,2.67,0,0,1-5.34,0V250.48a2.67,2.67,0,0,1,5.34,0Z"/><path class="cls-2" d="M270.41,252.74V229.59a2.68,2.68,0,0,1,5.35,0V271c0,11-6.85,16.46-16.38,16.46-10.77,0-17.12-6.43-17.12-20.13s6-20.06,16.79-20.06a14.13,14.13,0,0,1,11.36,5.44m0,6.76s-3.17-7.35-11-7.35c-7.6,0-11.77,4.93-11.77,15.21,0,10.44,4.09,15.28,11.77,15.28,6.44,0,11-3.67,11-11.61Z"/><path class="cls-3" d="M185.31,85.7H119.75a1.74,1.74,0,1,1,0-3.48h65.56a1.74,1.74,0,1,1,0,3.48"/><path class="cls-3" d="M86.69,85.7H20.86a1.74,1.74,0,1,1,0-3.48H86.69a1.74,1.74,0,1,1,0,3.48"/><path class="cls-3" d="M103.08,69.35a1.74,1.74,0,0,1-1.74-1.74V1.74a1.74,1.74,0,1,1,3.48,0V67.61a1.74,1.74,0,0,1-1.74,1.74"/><g class="cls-4"><g class="cls-5"><path class="cls-2" d="M87.49,80.64a1.7,1.7,0,0,1-.54-.09L24.34,60.21a1.74,1.74,0,1,1,1.08-3.31L88,77.24a1.74,1.74,0,0,1-.54,3.4"/></g></g><g class="cls-4"><g class="cls-6"><path class="cls-2" d="M118.67,80.64a1.74,1.74,0,0,1-.54-3.4L180.74,56.9a1.74,1.74,0,0,1,1.08,3.31L119.21,80.55a1.7,1.7,0,0,1-.54.09"/></g></g><g class="cls-4"><g class="cls-7"><path class="cls-2" d="M116.71,75.8a1.74,1.74,0,0,1-1-3.15l52.89-38.42a1.74,1.74,0,1,1,2,2.81L117.74,75.47a1.78,1.78,0,0,1-1,.33"/></g></g><g class="cls-4"><g class="cls-8"><path class="cls-2" d="M113,72.05a1.74,1.74,0,0,1-1.41-2.76L150,16.42a1.74,1.74,0,1,1,2.82,2L114.41,71.33a1.75,1.75,0,0,1-1.41.72"/></g></g><g class="cls-4"><g class="cls-9"><path class="cls-2" d="M108,70.52a1.68,1.68,0,0,1-.54-.08,1.74,1.74,0,0,1-1.11-2.19l20.47-63a1.74,1.74,0,1,1,3.31,1.07l-20.47,63a1.73,1.73,0,0,1-1.66,1.2"/></g></g><g class="cls-4"><g class="cls-10"><path class="cls-2" d="M89.82,76.07a1.77,1.77,0,0,1-1-.33L35.54,37a1.74,1.74,0,1,1,2-2.81L90.84,72.92a1.74,1.74,0,0,1-1,3.15"/></g></g><g class="cls-4"><g class="cls-11"><path class="cls-2" d="M93.46,72.46a1.73,1.73,0,0,1-1.41-.72L53.34,18.47a1.74,1.74,0,0,1,2.82-2l38.7,53.27a1.73,1.73,0,0,1-.38,2.43,1.71,1.71,0,0,1-1,.34"/></g></g><g class="cls-4"><g class="cls-12"><path class="cls-2" d="M98,70.11a1.73,1.73,0,0,1-1.65-1.2L76,6.3a1.74,1.74,0,1,1,3.31-1.07L99.67,67.84A1.74,1.74,0,0,1,98.55,70a1.68,1.68,0,0,1-.54.08"/></g></g><path class="cls-3" d="M103,287.07a2.76,2.76,0,0,1-2.76-2.75V229.68a2.76,2.76,0,1,1,5.51,0v54.64a2.75,2.75,0,0,1-2.75,2.75"/><path class="cls-3" d="M103,215.5a2.77,2.77,0,0,1-2.76-2.76V158.1a2.76,2.76,0,1,1,5.51,0v54.64A2.76,2.76,0,0,1,103,215.5"/><path class="cls-3" d="M103,143.92a2.76,2.76,0,0,1-2.76-2.76V86.52a2.76,2.76,0,0,1,5.51,0v54.64a2.75,2.75,0,0,1-2.75,2.76"/></g></g></svg>